<?xml version="1.0"?>
<svg width="163" height="41" xmlns="http://www.w3.org/2000/svg" xmlns:svg="http://www.w3.org/2000/svg">
 <g class="layer">
  <title>Layer 1</title>
  <rect fill="#ffffff" height="40" id="svg_1" rx="20" transform="matrix(1 0 0 1 0 0)" width="40" y="0.5"/>
  <path d="m24.48,11.85l-6.28,-3.79c-0.59,-0.37 -1.26,-0.56 -1.95,-0.56c-2.04,0 -3.92,1.71 -3.92,4.11l0,14.2l12.15,-7.34c2.43,-1.48 2.43,-5.15 0,-6.62zm-8.63,7.1l0,-7.58l6.27,3.79l-6.27,3.79z" fill="#0E1422" id="svg_2"/>
  <path d="m27.85,33.48c0,0.05 -11.86,-0.01 -11.86,-0.01l-1.05,-0.13c-1.69,-0.2 -3,-1.72 -2.94,-3.51c0,-0.04 0.01,-0.08 0.01,-0.12c0.04,-0.77 0.32,-1.51 0.78,-2.12c0.18,-0.24 0.41,-0.45 0.67,-0.6l9.02,-5.42c1.86,-1.12 3.41,-1.51 4.22,-3.54c0.3,-0.75 0.43,-1.57 0.38,-2.39l-0.04,-0.55l0.93,5.33c0.11,0.91 -0.07,1.83 -0.55,2.6c-0.29,0.46 -0.67,0.85 -1.12,1.13l-10.47,5.24c-0.01,0.01 -0.02,0.02 -0.03,0.02c-0.29,0.22 -0.11,0.7 0.24,0.68l8.71,0.05c1.69,-0.1 3.1,1.57 3.1,3.34z" fill="#0E1422" id="svg_3"/>
  <path d="m53.4,28l0,-14.4l9.4,0l0,2.54l-6.68,0l0,3.08l5.48,0l0,2.54l-5.48,0l0,3.7l6.68,0l0,2.54l-9.4,0zm15.86,0.3c-1.12,0 -2.08,-0.25 -2.88,-0.75c-0.8,-0.5 -1.42,-1.18 -1.84,-2.04c-0.43,-0.86 -0.64,-1.83 -0.64,-2.91c0,-1.09 0.22,-2.07 0.66,-2.93c0.44,-0.86 1.07,-1.54 1.88,-2.03c0.8,-0.49 1.76,-0.74 2.86,-0.74c1.27,0 2.34,0.32 3.2,0.97c0.86,0.64 1.42,1.52 1.66,2.63l-2.72,0.72c-0.16,-0.56 -0.44,-1 -0.84,-1.31c-0.4,-0.31 -0.84,-0.47 -1.34,-0.47c-0.58,0 -1.05,0.14 -1.41,0.42c-0.37,0.27 -0.64,0.65 -0.81,1.13c-0.18,0.47 -0.26,1.01 -0.26,1.61c0,0.94 0.2,1.7 0.62,2.29c0.42,0.58 1.04,0.87 1.86,0.87c0.61,0 1.08,-0.14 1.4,-0.42c0.32,-0.28 0.56,-0.68 0.72,-1.2l2.78,0.58c-0.31,1.15 -0.89,2.03 -1.74,2.65c-0.86,0.62 -1.91,0.93 -3.16,0.93zm10.76,0c-1.08,0 -2.04,-0.24 -2.86,-0.73c-0.82,-0.49 -1.46,-1.16 -1.92,-2.01c-0.45,-0.86 -0.68,-1.85 -0.68,-2.96c0,-1.13 0.24,-2.12 0.7,-2.97c0.47,-0.86 1.11,-1.53 1.93,-2.01c0.82,-0.48 1.77,-0.72 2.83,-0.72c1.09,0 2.04,0.24 2.86,0.73c0.83,0.49 1.47,1.16 1.93,2.02c0.46,0.85 0.69,1.84 0.69,2.95c0,1.12 -0.23,2.11 -0.7,2.97c-0.46,0.85 -1.1,1.52 -1.93,2.01c-0.82,0.48 -1.77,0.72 -2.85,0.72zm0,-2.54c0.88,0 1.53,-0.29 1.95,-0.88c0.44,-0.59 0.65,-1.35 0.65,-2.28c0,-0.96 -0.22,-1.73 -0.66,-2.3c-0.43,-0.57 -1.08,-0.86 -1.94,-0.86c-0.59,0 -1.08,0.13 -1.46,0.4c-0.38,0.27 -0.66,0.64 -0.85,1.11c-0.18,0.47 -0.27,1.02 -0.27,1.65c0,0.97 0.22,1.74 0.65,2.31c0.44,0.57 1.09,0.85 1.93,0.85zm19.98,2.24l0,-6.38c0,-0.71 -0.17,-1.27 -0.51,-1.66c-0.33,-0.4 -0.79,-0.6 -1.39,-0.6c-0.38,0 -0.71,0.09 -0.99,0.27c-0.28,0.17 -0.5,0.42 -0.66,0.74c-0.15,0.31 -0.23,0.68 -0.23,1.09l-1.14,-0.76c0,-0.74 0.18,-1.39 0.52,-1.96c0.36,-0.57 0.83,-1.01 1.41,-1.32c0.6,-0.32 1.25,-0.48 1.97,-0.48c1.24,0 2.17,0.37 2.79,1.1c0.64,0.73 0.95,1.68 0.95,2.86l0,7.1l-2.72,0zm-13.02,0l0,-10.8l2.4,0l0,3.58l0.34,0l0,7.22l-2.74,0zm6.52,0l0,-6.38c0,-0.71 -0.17,-1.27 -0.51,-1.66c-0.33,-0.4 -0.79,-0.6 -1.39,-0.6c-0.56,0 -1.02,0.2 -1.37,0.59c-0.34,0.39 -0.51,0.89 -0.51,1.51l-1.14,-0.8c0,-0.71 0.18,-1.34 0.53,-1.9c0.36,-0.56 0.83,-1 1.42,-1.33c0.6,-0.33 1.27,-0.49 2.01,-0.49c0.85,0 1.54,0.18 2.08,0.54c0.55,0.36 0.95,0.84 1.21,1.44c0.26,0.6 0.39,1.26 0.39,1.98l0,7.1l-2.72,0zm24.12,0l0,-6.38c0,-0.71 -0.17,-1.27 -0.51,-1.66c-0.33,-0.4 -0.79,-0.6 -1.39,-0.6c-0.38,0 -0.71,0.09 -0.99,0.27c-0.28,0.17 -0.5,0.42 -0.66,0.74c-0.15,0.31 -0.23,0.68 -0.23,1.09l-1.14,-0.76c0,-0.74 0.18,-1.39 0.52,-1.96c0.36,-0.57 0.83,-1.01 1.41,-1.32c0.6,-0.32 1.25,-0.48 1.97,-0.48c1.24,0 2.17,0.37 2.79,1.1c0.64,0.73 0.95,1.68 0.95,2.86l0,7.1l-2.72,0zm-13.02,0l0,-10.8l2.4,0l0,3.58l0.34,0l0,7.22l-2.74,0zm6.52,0l0,-6.38c0,-0.71 -0.17,-1.27 -0.51,-1.66c-0.33,-0.4 -0.79,-0.6 -1.39,-0.6c-0.56,0 -1.02,0.2 -1.37,0.59c-0.34,0.39 -0.51,0.89 -0.51,1.51l-1.14,-0.8c0,-0.71 0.18,-1.34 0.53,-1.9c0.36,-0.56 0.83,-1 1.42,-1.33c0.6,-0.33 1.27,-0.49 2.01,-0.49c0.85,0 1.54,0.18 2.08,0.54c0.55,0.36 0.95,0.84 1.21,1.44c0.26,0.6 0.39,1.26 0.39,1.98l0,7.1l-2.72,0zm15.95,0.3c-1.11,0 -2.09,-0.24 -2.93,-0.71c-0.84,-0.48 -1.5,-1.14 -1.98,-1.97c-0.47,-0.84 -0.71,-1.8 -0.71,-2.88c0,-1.18 0.23,-2.21 0.7,-3.08c0.46,-0.87 1.11,-1.55 1.93,-2.03c0.82,-0.49 1.76,-0.73 2.83,-0.73c1.13,0 2.09,0.27 2.89,0.8c0.79,0.53 1.38,1.28 1.76,2.25c0.38,0.97 0.51,2.1 0.4,3.41l-2.69,0l0,-1c0,-1.1 -0.18,-1.89 -0.53,-2.37c-0.35,-0.49 -0.92,-0.73 -1.71,-0.73c-0.93,0 -1.61,0.28 -2.05,0.85c-0.43,0.56 -0.65,1.39 -0.65,2.49c0,1.01 0.22,1.79 0.65,2.34c0.44,0.55 1.08,0.82 1.93,0.82c0.53,0 0.99,-0.12 1.37,-0.35c0.38,-0.23 0.67,-0.57 0.87,-1.01l2.72,0.78c-0.41,0.99 -1.05,1.75 -1.93,2.3c-0.88,0.55 -1.83,0.82 -2.87,0.82zm-3.58,-4.94l0,-2.02l7.16,0l0,2.02l-7.16,0zm10.03,4.64l0,-10.8l2.4,0l0,2.64l-0.26,-0.34c0.14,-0.37 0.32,-0.71 0.56,-1.02c0.23,-0.31 0.52,-0.56 0.86,-0.76c0.26,-0.16 0.54,-0.28 0.85,-0.37c0.3,-0.09 0.62,-0.15 0.95,-0.17c0.32,-0.03 0.65,-0.02 0.98,0.02l0,2.54c-0.3,-0.09 -0.65,-0.12 -1.05,-0.09c-0.4,0.03 -0.75,0.12 -1.07,0.27c-0.32,0.15 -0.59,0.34 -0.81,0.59c-0.22,0.24 -0.39,0.53 -0.5,0.86c-0.12,0.33 -0.17,0.7 -0.17,1.11l0,5.52l-2.74,0zm12.1,0.3c-1.12,0 -2.08,-0.25 -2.88,-0.75c-0.8,-0.5 -1.41,-1.18 -1.84,-2.04c-0.42,-0.86 -0.64,-1.83 -0.64,-2.91c0,-1.09 0.22,-2.07 0.66,-2.93c0.45,-0.86 1.08,-1.54 1.88,-2.03c0.81,-0.49 1.76,-0.74 2.86,-0.74c1.28,0 2.34,0.32 3.2,0.97c0.87,0.64 1.42,1.52 1.66,2.63l-2.72,0.72c-0.16,-0.56 -0.44,-1 -0.84,-1.31c-0.39,-0.31 -0.84,-0.47 -1.34,-0.47c-0.57,0 -1.04,0.14 -1.41,0.42c-0.36,0.27 -0.63,0.65 -0.81,1.13c-0.17,0.47 -0.26,1.01 -0.26,1.61c0,0.94 0.21,1.7 0.62,2.29c0.42,0.58 1.04,0.87 1.86,0.87c0.62,0 1.08,-0.14 1.4,-0.42c0.32,-0.28 0.56,-0.68 0.72,-1.2l2.78,0.58c-0.3,1.15 -0.88,2.03 -1.74,2.65c-0.85,0.62 -1.9,0.93 -3.16,0.93zm10.93,0c-1.11,0 -2.08,-0.24 -2.93,-0.71c-0.84,-0.48 -1.5,-1.14 -1.98,-1.97c-0.47,-0.84 -0.71,-1.8 -0.71,-2.88c0,-1.18 0.23,-2.21 0.7,-3.08c0.47,-0.87 1.11,-1.55 1.93,-2.03c0.82,-0.49 1.76,-0.73 2.83,-0.73c1.13,0 2.1,0.27 2.89,0.8c0.79,0.53 1.38,1.28 1.76,2.25c0.38,0.97 0.51,2.1 0.4,3.41l-2.69,0l0,-1c0,-1.1 -0.18,-1.89 -0.53,-2.37c-0.35,-0.49 -0.92,-0.73 -1.71,-0.73c-0.93,0 -1.61,0.28 -2.05,0.85c-0.43,0.56 -0.65,1.39 -0.65,2.49c0,1.01 0.22,1.79 0.65,2.34c0.44,0.55 1.08,0.82 1.93,0.82c0.53,0 0.99,-0.12 1.37,-0.35c0.38,-0.23 0.67,-0.57 0.87,-1.01l2.72,0.78c-0.41,0.99 -1.05,1.75 -1.93,2.3c-0.87,0.55 -1.83,0.82 -2.87,0.82zm-3.58,-4.94l0,-2.02l7.16,0l0,2.02l-7.16,0z" fill="#ffffff" id="svg_4"/>
 </g>
</svg>